0
SECTION
2
HEADER
9
$INSUNITS
70
4
9
$ACADVER
1
AC1014
9
$HANDSEED
5
FFFF
0
ENDSEC
0
SECTION
2
TABLES
0
TABLE
2
VPORT
5
8
100
AcDbSymbolTable
0
ENDTAB
0
TABLE
2
LTYPE
5
5
100
AcDbSymbolTable
0
LTYPE
5
14
100
AcDbSymbolTableRecord
100
AcDbLinetypeTableRecord
2
BYBLOCK
70
0
0
LTYPE
5
15
100
AcDbSymbolTableRecord
100
AcDbLinetypeTableRecord
2
BYLAYER
70
0
0
ENDTAB
0
TABLE
2
LAYER
5
2
100
AcDbSymbolTable
70
2
0
LAYER
5
50
100
AcDbSymbolTableRecord
100
AcDbLayerTableRecord
2
0
70
0
6
CONTINUOUS
0
ENDTAB
0
TABLE
2
STYLE
5
3
100
AcDbSymbolTable
70
1
0
STYLE
5
11
100
AcDbSymbolTableRecord
100
AcDbTextStyleTableRecord
2
STANDARD
70
0
0
ENDTAB
0
TABLE
2
VIEW
5
6
100
AcDbSymbolTable
70
0
0
ENDTAB
0
TABLE
2
UCS
5
7
100
AcDbSymbolTable
70
0
0
ENDTAB
0
TABLE
2
APPID
5
9
100
AcDbSymbolTable
70
2
0
APPID
5
12
100
AcDbSymbolTableRecord
100
AcDbRegAppTableRecord
2
ACAD
70
0
0
ENDTAB
0
TABLE
2
DIMSTYLE
5
A
100
AcDbSymbolTable
70
1
0
ENDTAB
0
TABLE
2
BLOCK_RECORD
5
1
100
AcDbSymbolTable
70
1
0
BLOCK_RECORD
5
1F
100
AcDbSymbolTableRecord
100
AcDbBlockTableRecord
2
*MODEL_SPACE
0
BLOCK_RECORD
5
1B
100
AcDbSymbolTableRecord
100
AcDbBlockTableRecord
2
*PAPER_SPACE
0
ENDTAB
0
ENDSEC
0
SECTION
2
BLOCKS
0
BLOCK
5
20
100
AcDbEntity
100
AcDbBlockBegin
2
*MODEL_SPACE
0
ENDBLK
5
21
100
AcDbEntity
100
AcDbBlockEnd
0
BLOCK
5
1C
100
AcDbEntity
100
AcDbBlockBegin
2
*PAPER_SPACE
0
ENDBLK
5
1D
100
AcDbEntity
100
AcDbBlockEnd
0
ENDSEC
0
SECTION
2
ENTITIES
0
CIRCLE
5
100
100
AcDbEntity
8
0
100
AcDbCircle
10
-27.037096130858803
20
2.2919964581932852
30
0
40
1.4999999999999991
210
0
220
-0
230
1
0
CIRCLE
5
101
100
AcDbEntity
8
0
100
AcDbCircle
10
-26.34631434414462
20
14.367803642089783
30
0
40
1.4999999999999991
210
0
220
-0
230
1
0
LWPOLYLINE
5
102
100
AcDbEntity
8
0
100
AcDbPolyline
90
2
70
1
43
0.0
10
-29.992402653517939
20
14.663292872744126
42
-0.0057408322882350534
10
-29.984261193873326
20
14.781374606572356
42
-0.00072100502181401244
0
LWPOLYLINE
5
103
100
AcDbEntity
8
0
100
AcDbPolyline
90
4
70
1
43
0.0
10
-69.466914676852085
20
-61.348814939896954
10
-69.816675632511235
20
-59.944812672401611
42
1.0172742549057068
10
-72.824300134719039
20
-60.694063328571985
10
-72.474539179062631
20
-62.098065596055967
42
1.0172742549243234
0
LWPOLYLINE
5
104
100
AcDbEntity
8
0
100
AcDbPolyline
90
4
70
1
43
0.0
10
-60.221352010118984
20
-65.720493091873564
10
-61.607748755367346
20
-66.065868211107528
42
1.0232480125582397
10
-60.858586059707818
20
-69.073139624341806
10
-59.472189314466569
20
-68.727764505109675
42
1.0232480125455763
0
CIRCLE
5
105
100
AcDbEntity
8
0
100
AcDbCircle
10
-69.030476832286368
20
-69.511946931607014
30
0
40
3.500000000000012
210
0
220
-0
230
1
0
LWPOLYLINE
5
106
100
AcDbEntity
8
0
100
AcDbPolyline
90
4
70
1
43
0.0
10
-65.26794584059823
20
-78.227181236553918
10
-65.565894862224553
20
-77.031161225764677
42
1.0903312653551014
10
-68.562746676978776
20
-77.777728221392692
10
-68.264797655352652
20
-78.973748232181265
42
1.0903312653488917
0
LWPOLYLINE
5
107
100
AcDbEntity
8
0
100
AcDbPolyline
90
4
70
1
43
0.0
10
-77.74694523025434
20
-73.274900769652007
42
-1.0894105997395005
10
-78.493566368385132
20
-70.27783161732485
10
-77.295024029049159
20
-69.979254240557523
42
-1.0894105997454502
10
-76.548402890919391
20
-72.976323392884765
0
LWPOLYLINE
5
108
100
AcDbEntity
8
0
100
AcDbPolyline
90
25
70
1
43
0.0
10
-25.250705749716058
20
-7.3582269402742444
42
-0.06557318374757147
10
-21.830786096696315
20
-2.7411268157915214
42
0.19452072484395275
10
-19.79568783806436
20
2.2919964581919938
10
-19.795687838064353
20
11.647846403680351
42
0.03272440957316889
10
-19.79568783806436
20
17.733027524182418
10
-19.79568783806436
20
20.000000298023224
10
-30.775954395625252
20
20.000000298023224
42
0.28524573803606956
10
-32.523626181246279
20
11.54979844922666
42
-0.23567777725208544
10
-33.117853156955654
20
6.2242207717856823
42
0.14278876403039134
10
-34.278341485293254
20
2.3405740221022606
42
-0.04613563528784919
10
-34.678420864240039
20
-1.6909357541400638
10
-52.390704479319723
20
-31.155873152976795
42
-0.038620476435990328
10
-72.994238009951175
20
-56.147929820000392
42
-0.16583632613250701
10
-78.160065328950964
20
-58.807625351469042
42
0.50428628853103064
10
-84.778170641467256
20
-71.219223852695507
42
0.18516148916278824
10
-84.258148438968163
20
-76.328064426412666
42
0.16076928411379152
10
-83.259043712602733
20
-79.417529396954123
42
0.30380390868948126
10
-81.137625770766689
20
-83.411129575502784
42
0.51968269362510255
10
-75.527334433647042
20
-86.785371949929726
42
0.29913020154968206
10
-71.063479451497713
20
-86.745363688272107
42
0.16076928411380156
10
-67.866592535262569
20
-86.177104853538026
42
0.18516148916278682
10
-63.11161841230841
20
-84.237801837300879
42
0.50529669510572828
10
-55.26932774106416
20
-72.540943695762451
42
-0.16682328338737018
10
-55.354193504243256
20
-66.698533313151586
42
-0.03856451851801896
10
-42.962988958249682
20
-36.823164037405611
0
ENDSEC
0
SECTION
2
OBJECTS
0
DICTIONARY
5
C
100
AcDbDictionary
3
ACAD_GROUP
350
D
3
ACAD_MLINESTYLE
350
17
0
DICTIONARY
5
D
100
AcDbDictionary
0
DICTIONARY
5
1A
330
C
100
AcDbDictionary
0
DICTIONARY
5
17
100
AcDbDictionary
0
ENDSEC
0
EOF
