0
SECTION
2
HEADER
9
$INSUNITS
70
4
9
$ACADVER
1
AC1014
9
$HANDSEED
5
FFFF
0
ENDSEC
0
SECTION
2
TABLES
0
TABLE
2
VPORT
5
8
100
AcDbSymbolTable
0
ENDTAB
0
TABLE
2
LTYPE
5
5
100
AcDbSymbolTable
0
LTYPE
5
14
100
AcDbSymbolTableRecord
100
AcDbLinetypeTableRecord
2
BYBLOCK
70
0
0
LTYPE
5
15
100
AcDbSymbolTableRecord
100
AcDbLinetypeTableRecord
2
BYLAYER
70
0
0
ENDTAB
0
TABLE
2
LAYER
5
2
100
AcDbSymbolTable
70
2
0
LAYER
5
50
100
AcDbSymbolTableRecord
100
AcDbLayerTableRecord
2
0
70
0
6
CONTINUOUS
0
ENDTAB
0
TABLE
2
STYLE
5
3
100
AcDbSymbolTable
70
1
0
STYLE
5
11
100
AcDbSymbolTableRecord
100
AcDbTextStyleTableRecord
2
STANDARD
70
0
0
ENDTAB
0
TABLE
2
VIEW
5
6
100
AcDbSymbolTable
70
0
0
ENDTAB
0
TABLE
2
UCS
5
7
100
AcDbSymbolTable
70
0
0
ENDTAB
0
TABLE
2
APPID
5
9
100
AcDbSymbolTable
70
2
0
APPID
5
12
100
AcDbSymbolTableRecord
100
AcDbRegAppTableRecord
2
ACAD
70
0
0
ENDTAB
0
TABLE
2
DIMSTYLE
5
A
100
AcDbSymbolTable
70
1
0
ENDTAB
0
TABLE
2
BLOCK_RECORD
5
1
100
AcDbSymbolTable
70
1
0
BLOCK_RECORD
5
1F
100
AcDbSymbolTableRecord
100
AcDbBlockTableRecord
2
*MODEL_SPACE
0
BLOCK_RECORD
5
1B
100
AcDbSymbolTableRecord
100
AcDbBlockTableRecord
2
*PAPER_SPACE
0
ENDTAB
0
ENDSEC
0
SECTION
2
BLOCKS
0
BLOCK
5
20
100
AcDbEntity
100
AcDbBlockBegin
2
*MODEL_SPACE
0
ENDBLK
5
21
100
AcDbEntity
100
AcDbBlockEnd
0
BLOCK
5
1C
100
AcDbEntity
100
AcDbBlockBegin
2
*PAPER_SPACE
0
ENDBLK
5
1D
100
AcDbEntity
100
AcDbBlockEnd
0
ENDSEC
0
SECTION
2
ENTITIES
0
ARC
5
100
100
AcDbEntity
8
0
100
AcDbCircle
10
-51.537800394479234
20
45.999973061366859
30
0
40
9.9999730613671645
210
0
220
0
230
1
100
AcDbArc
50
269.9999999864865
51
273.66009299232229
0
LINE
5
101
100
AcDbEntity
8
0
100
AcDbLine
10
-51.537800396837774
20
35.999999999999694
30
0
11
-80.060347595590031
21
35.999999999999801
31
0
0
ARC
5
102
100
AcDbEntity
8
0
100
AcDbCircle
10
-80.060347595590002
20
31.999999999999812
30
0
40
3.9999999999999902
210
0
220
0
230
1
100
AcDbArc
50
90.000000000000398
51
172.71420875843899
0
ARC
5
103
100
AcDbEntity
8
0
100
AcDbCircle
10
13.798981483573165
20
19.999999999999218
30
0
40
98.623325111679861
210
0
220
0
230
1
100
AcDbArc
50
172.71420875843845
51
175.63862161948313
0
LINE
5
104
100
AcDbEntity
8
0
100
AcDbLine
10
-84.538754152027877
20
27.500000409781904
30
0
11
-84.500001110136509
21
27.500000409781933
31
0
0
LINE
5
105
100
AcDbEntity
8
0
100
AcDbLine
10
-84.500001110136509
20
27.500000409781933
30
0
11
-84.500001110136509
21
12.500000186264515
31
0
0
LINE
5
106
100
AcDbEntity
8
0
100
AcDbLine
10
-84.500001110136509
20
12.500000186264515
30
0
11
-84.538754197487066
21
12.500000186264515
31
0
0
ARC
5
107
100
AcDbEntity
8
0
100
AcDbCircle
10
13.798981483573165
20
19.999999999999218
30
0
40
98.623325111679776
210
0
220
0
230
1
100
AcDbArc
50
184.36137803323388
51
187.28579124156101
0
ARC
5
108
100
AcDbEntity
8
0
100
AcDbCircle
10
-80.060347595589988
20
8.0000000000004441
30
0
40
4.0000000000001688
210
0
220
0
230
1
100
AcDbArc
50
187.28579124157355
51
269.99999999999983
0
LINE
5
109
100
AcDbEntity
8
0
100
AcDbLine
10
-80.060347595590002
20
4.0000000000002753
30
0
11
-77.246852244904787
21
4.0001564507873866
31
0
0
LINE
5
110
100
AcDbEntity
8
0
100
AcDbLine
10
-77.246852244904787
20
4.0001564507873866
30
0
11
-77.246853041116339
21
4.0002329598601705
31
0
0
LINE
5
111
100
AcDbEntity
8
0
100
AcDbLine
10
-77.246853041116339
20
4.0002329598601705
30
0
11
-63.870969614876145
21
4.0002329598601705
31
0
0
LINE
5
112
100
AcDbEntity
8
0
100
AcDbLine
10
-63.870969614876145
20
4.0002329598601705
30
0
11
-51.538422007627531
21
4.0009187391276679
31
0
0
LINE
5
113
100
AcDbEntity
8
0
100
AcDbLine
10
-51.538422007627531
20
4.0009187391276679
30
0
11
-51.538421991766228
21
4.0016138299660042
31
0
0
ARC
5
114
100
AcDbEntity
8
0
100
AcDbCircle
10
-51.53881050861763
20
-5.9983592238536589
30
0
40
9.9999730613669513
210
0
220
-0
230
1
100
AcDbArc
50
86.33768096411319
51
89.997773956417277
0
ARC
5
115
100
AcDbEntity
8
0
100
AcDbCircle
10
-51.219432188031895
20
-1.0085968945733648
30
0
40
5.0000000000030331
210
0
220
-0
230
1
100
AcDbArc
50
11.06042941249458
51
86.337680964113389
0
ARC
5
116
100
AcDbEntity
8
0
100
AcDbCircle
10
-36.007338600336993
20
1.9649882613124092
30
0
40
10.499999999999954
210
0
220
0
230
1
100
AcDbArc
50
191.06042941249459
51
317.30641618630989
0
ARC
5
117
100
AcDbEntity
8
0
100
AcDbCircle
10
-15.795098934942828
20
-16.682139338097741
30
0
40
17.000000000000352
210
0
220
0
230
1
100
AcDbArc
50
103.43254990857133
51
137.30641618630912
0
ARC
5
118
100
AcDbEntity
8
0
100
AcDbCircle
10
-10.002523361025553
20
-40.935699604904769
30
0
40
41.935699657222393
210
0
220
-0
230
1
100
AcDbArc
50
89.99749393604138
51
103.43254990857083
0
ARC
5
119
100
AcDbEntity
8
0
100
AcDbCircle
10
-10.000488876759945
20
-40.935699689249674
30
0
40
41.93569970204549
210
0
220
-0
230
1
100
AcDbArc
50
89.999332058955815
51
90.000273604984059
0
LINE
5
120
100
AcDbEntity
8
0
100
AcDbLine
10
-9.9999999999999964
20
1.0000000099462092
30
0
11
-2.2204460492503131e-15
21
1.000000010044606
31
0
0
ARC
5
121
100
AcDbEntity
8
0
100
AcDbCircle
10
-0.00048887675994535584
20
-40.935699689249674
30
0
40
41.935699702045483
210
0
220
-0
230
1
100
AcDbArc
50
76.56522405457774
51
89.999332058955815
0
ARC
5
122
100
AcDbEntity
8
0
100
AcDbCircle
10
5.7930289922902745
20
-16.68236444785272
30
0
40
17.000000000000007
210
0
220
-0
230
1
100
AcDbArc
50
42.691357770107224
51
76.565224046657676
0
ARC
5
123
100
AcDbEntity
8
0
100
AcDbCircle
10
26.005993116711466
20
1.9639778557965581
30
0
40
10.49999999999997
210
0
220
0
230
1
100
AcDbArc
50
222.69135777010752
51
348.93734454392239
0
ARC
5
124
100
AcDbEntity
8
0
100
AcDbCircle
10
41.21797116382006
20
-1.0101983149075744
30
0
40
5.0000000000031655
210
0
220
0
230
1
100
AcDbArc
50
93.660092992302111
51
168.93734454392236
0
ARC
5
125
100
AcDbEntity
8
0
100
AcDbCircle
10
41.53715562296739
20
-5.9999730488414116
30
0
40
9.9999730613671627
210
0
220
-0
230
1
100
AcDbArc
50
89.999999999999588
51
93.660092992302125
0
LINE
5
126
100
AcDbEntity
8
0
100
AcDbLine
10
41.537155622967461
20
4.000000012525752
30
0
11
41.550431321562023
21
4.0000000000016902
31
0
0
ARC
5
127
100
AcDbEntity
8
0
100
AcDbCircle
10
41.550431322135196
20
5.3000000070087436
30
0
40
1.3000000070070539
210
0
220
0
230
1
100
AcDbArc
50
269.99999997473816
51
360
0
LINE
5
128
100
AcDbEntity
8
0
100
AcDbLine
10
42.850431322135194
20
5.3000000057613281
30
0
11
42.850431345691092
21
29.848893578108807
31
0
0
LINE
5
129
100
AcDbEntity
8
0
100
AcDbLine
10
42.850431345691092
20
29.848893578108807
30
0
11
42.849871886248003
21
29.848893546331507
31
0
0
LINE
5
130
100
AcDbEntity
8
0
100
AcDbLine
10
42.849871886248003
20
29.848893546331507
30
0
11
42.849758284364476
21
31.848893543105156
31
0
0
LINE
5
131
100
AcDbEntity
8
0
100
AcDbLine
10
42.849758284364476
20
31.848893543105156
30
0
11
42.850431347610197
21
31.848893581335147
31
0
0
LINE
5
132
100
AcDbEntity
8
0
100
AcDbLine
10
42.850431347610197
20
31.848893581335147
30
0
11
42.850431350345104
21
34.699096903273414
31
0
0
ARC
5
133
100
AcDbEntity
8
0
100
AcDbCircle
10
41.550431350345114
20
34.699096904520843
30
0
40
1.2999999999999901
210
0
220
0
230
1
100
AcDbArc
50
0
51
90.003254424559387
0
LINE
5
134
100
AcDbEntity
8
0
100
AcDbLine
10
41.550357509794189
20
35.999096902423744
30
0
11
41.537777236405482
21
35.999096187858882
31
0
0
LINE
5
135
100
AcDbEntity
8
0
100
AcDbLine
10
41.537777236405482
20
35.999096187858882
30
0
11
41.537777220254455
21
35.998386182559514
31
0
0
ARC
5
136
100
AcDbEntity
8
0
100
AcDbCircle
10
41.538165737105857
20
45.9983592363794
30
0
40
9.9999730613672035
210
0
220
0
230
1
100
AcDbArc
50
266.33768096411512
51
269.99777395641729
0
ARC
5
137
100
AcDbEntity
8
0
100
AcDbCircle
10
41.218787416520314
20
41.008596907099076
30
0
40
5.0000000000032694
210
0
220
0
230
1
100
AcDbArc
50
191.06042941249513
51
266.33768096411512
0
ARC
5
138
100
AcDbEntity
8
0
100
AcDbCircle
10
26.006693828825146
20
38.035011751213126
30
0
40
10.500000000000009
210
0
220
-0
230
1
100
AcDbArc
50
11.060429412494978
51
137.30641618630995
0
ARC
5
139
100
AcDbEntity
8
0
100
AcDbCircle
10
5.7944541634311264
20
56.682139350623046
30
0
40
17.000000000000021
210
-0
220
0
230
1
100
AcDbArc
50
283.43254990975919
51
317.30641618630926
0
ARC
5
140
100
AcDbEntity
8
0
100
AcDbCircle
10
0.0018785842359392291
20
80.935699662255374
30
0
40
41.93569970204716
210
0
220
0
230
1
100
AcDbArc
50
269.99741094138767
51
283.4325499018392
0
LINE
5
141
100
AcDbEntity
8
0
100
AcDbLine
10
-1.6389274588606473e-05
20
39.000000003022862
30
0
11
-10.00001638927472
21
38.999999999953815
31
0
0
ARC
5
142
100
AcDbEntity
8
0
100
AcDbCircle
10
-10.00015590003116
20
80.935699656951741
30
0
40
41.935699657221967
210
0
220
0
230
1
100
AcDbArc
50
256.56522404784641
51
270.00019061032975
0
ARC
5
143
100
AcDbEntity
8
0
100
AcDbCircle
10
-15.793673763802047
20
56.68236446037838
30
0
40
17.000000000000085
210
0
220
0
230
1
100
AcDbArc
50
222.69135777010771
51
256.56522404784596
0
ARC
5
144
100
AcDbEntity
8
0
100
AcDbCircle
10
-36.00663788822331
20
38.036022156728905
30
0
40
10.50000000000008
210
0
220
-0
230
1
100
AcDbArc
50
42.691357770107274
51
168.9373445439293
0
ARC
5
145
100
AcDbEntity
8
0
100
AcDbCircle
10
-51.218615935329993
20
41.010198327430771
30
0
40
5.0000000000007976
210
-0
220
0
230
1
100
AcDbArc
50
273.66009299232229
51
348.93734454392927
0
LWPOLYLINE
5
146
100
AcDbEntity
8
0
100
AcDbPolyline
90
4
70
1
43
0.0
10
10.000000000000322
20
31.550000000000054
10
3.219646771412954e-13
20
31.550000000000054
42
0.99999999999999989
10
3.219646771412954e-13
20
28.450000000000053
10
10.000000000000322
20
28.450000000000053
42
0.99999999999999989
0
LWPOLYLINE
5
147
100
AcDbEntity
8
0
100
AcDbPolyline
90
4
70
1
43
0.0
10
-15.249999999999737
20
6.3000000000000682
10
-25.249999999999737
20
6.3000000000000682
42
0.99999999999999989
10
-25.249999999999737
20
3.2000000000000672
10
-15.249999999999737
20
3.2000000000000672
42
0.99999999999999989
0
LWPOLYLINE
5
148
100
AcDbEntity
8
0
100
AcDbPolyline
90
4
70
1
43
0.0
10
10.00000000000025
20
11.550000000000125
10
2.5091040356528538e-13
20
11.550000000000125
42
0.99999999999999989
10
2.5091040356528538e-13
20
8.4500000000001236
10
10.00000000000025
20
8.4500000000001236
42
0.99999999999999989
0
LWPOLYLINE
5
149
100
AcDbEntity
8
0
100
AcDbPolyline
90
4
70
1
43
0.0
10
15.250000000000378
20
36.800000000000111
10
5.2500000000003784
20
36.800000000000111
42
0.99999999999999989
10
5.2500000000003784
20
33.700000000000109
10
15.250000000000378
20
33.700000000000109
42
0.99999999999999989
0
LWPOLYLINE
5
150
100
AcDbEntity
8
0
100
AcDbPolyline
90
4
70
1
43
0.0
10
-9.9999999999996785
20
11.550000000000054
10
-19.999999999999677
20
11.550000000000054
42
0.99999999999999989
10
-19.999999999999677
20
8.4500000000000526
10
-9.9999999999996785
20
8.4500000000000526
42
0.99999999999999989
0
LWPOLYLINE
5
151
100
AcDbEntity
8
0
100
AcDbPolyline
90
4
70
1
43
0.0
10
-15.249999999999737
20
36.800000000000182
10
-25.249999999999737
20
36.800000000000182
42
0.99999999999999989
10
-25.249999999999737
20
33.70000000000018
10
-15.249999999999737
20
33.70000000000018
42
0.99999999999999989
0
LWPOLYLINE
5
152
100
AcDbEntity
8
0
100
AcDbPolyline
90
4
70
1
43
0.0
10
-9.9999999999997495
20
31.550000000000125
10
-19.999999999999748
20
31.550000000000125
42
0.99999999999999989
10
-19.999999999999748
20
28.450000000000124
10
-9.9999999999997495
20
28.450000000000124
42
0.99999999999999989
0
LWPOLYLINE
5
153
100
AcDbEntity
8
0
100
AcDbPolyline
90
4
70
1
43
0.0
10
15.250000000000307
20
6.3000000000000682
10
5.2500000000003073
20
6.3000000000000682
42
0.99999999999999989
10
5.2500000000003073
20
3.2000000000000672
10
15.250000000000307
20
3.2000000000000672
42
0.99999999999999989
0
LWPOLYLINE
5
154
100
AcDbEntity
8
0
100
AcDbPolyline
90
8
70
1
43
0.0
10
-2.5345761324732075
20
15.666223507792694
10
5.1673838675268087
20
15.666223507792694
42
0.41421356237309098
10
5.6487563675268166
20
16.147596007792693
10
5.648756367526806
20
23.849556007792675
42
0.41421356237310114
10
5.1673838675268087
20
24.330928507792677
10
-2.5345761324732075
20
24.330928507792681
42
0.41421356237308454
10
-3.015948632473211
20
23.849556007792696
10
-3.0159486324732141
20
16.147596007792696
42
0.41421356237309809
0
LWPOLYLINE
5
155
100
AcDbEntity
8
0
100
AcDbPolyline
90
6
70
1
43
0.0
10
-17.273986051312992
20
24.354338941543183
10
-24.380936918813958
20
24.354338941543183
42
0.55753651583508845
10
-24.811489571813581
20
23.657690115043355
10
-21.258014138063103
20
16.550739247542406
42
0.618033988749912
10
-20.396908832063872
20
16.55073924754241
10
-16.843433398313394
20
23.657690115043373
42
0.55753651583505448
0
CIRCLE
5
156
100
AcDbEntity
8
0
100
AcDbCircle
10
-10.558181485063479
20
20.319491007792703
30
0
40
4.3323524999999989
210
0
220
-0
230
1
0
LWPOLYLINE
5
157
100
AcDbEntity
8
0
100
AcDbPolyline
90
12
70
1
43
0.0
10
12.760329801563318
20
18.972984210333781
10
15.855952113850044
20
15.877361898047049
42
0.99999999999999989
10
16.881543889696239
20
16.902953717118674
10
13.78592159902224
20
19.998576007792686
10
16.88154390814384
20
23.094198316914309
42
0.9999999925494194
10
15.855952103043693
20
24.11979010673198
10
12.760329801563318
20
21.024167805251608
10
9.6647075000829457
20
24.11979010673198
42
0.99999999999999989
10
8.6391157026240464
20
23.094198309273057
10
11.734738004104395
20
19.998576007792686
10
8.6391156949827934
20
16.902953698671066
42
0.9999999925494194
10
9.6647075000829386
20
15.877361908853391
0
CIRCLE
5
158
100
AcDbEntity
8
0
100
AcDbCircle
10
-80.69292526941166
20
32.999999999999659
30
0
40
1.4999999999999947
210
0
220
0
230
1
0
CIRCLE
5
159
100
AcDbEntity
8
0
100
AcDbCircle
10
-80.69292526941166
20
6.9999999999996563
30
0
40
1.4999999999999947
210
0
220
0
230
1
0
LWPOLYLINE
5
160
100
AcDbEntity
8
0
100
AcDbPolyline
90
8
70
1
43
0.0
10
-52.191674475905039
20
20.738335516477289
10
-52.191674475905039
20
26.738335516477285
42
0.4142135623730846
10
-52.566674475905032
20
27.113335516477285
10
-58.566674475905032
20
27.113335516477285
42
0.41421356237310542
10
-58.941674475905032
20
26.738335516477282
10
-58.941674475905032
20
20.738335516477289
42
0.4142135623730846
10
-58.566674475905032
20
20.363335516477289
10
-52.566674475905032
20
20.363335516477289
42
0.4142135623730846
0
LWPOLYLINE
5
161
100
AcDbEntity
8
0
100
AcDbPolyline
90
6
70
1
43
0.0
10
-58.941674475905032
20
18.256003809608025
10
-58.941674475905039
20
12.719529301170454
42
0.5575365158350486
10
-58.39896937759255
20
12.384119104545483
10
-52.862494869154979
20
15.152356358764269
42
0.61803398874986548
10
-52.862494869154979
20
15.823176752014209
10
-58.39896937759255
20
18.591414006232991
42
0.55753651583505781
0
CIRCLE
5
162
100
AcDbEntity
8
0
100
AcDbCircle
10
-63.816674475905032
20
15.487766555389239
30
0
40
3.3750000000000036
210
0
220
0
230
1
0
LINE
5
163
100
AcDbEntity
8
0
100
AcDbLine
10
-67.368451171201684
20
21.070442297663842
30
0
11
-64.700557952388223
21
23.738335516477285
31
0
0
LINE
5
164
100
AcDbEntity
8
0
100
AcDbLine
10
-64.700557952388223
20
23.738335516477285
30
0
11
-67.368451171201684
21
26.406228735290746
31
0
0
ARC
5
165
100
AcDbEntity
8
0
100
AcDbCircle
10
-66.926509432960103
20
26.848170473532331
30
0
40
0.625000000000005
210
0
220
-0
230
1
100
AcDbArc
50
44.999999999998394
51
225.00000000000023
0
LINE
5
166
100
AcDbEntity
8
0
100
AcDbLine
10
-66.484567694718493
20
27.290112211773916
30
0
11
-63.816674475905032
21
24.62221899296047
31
0
0
LINE
5
167
100
AcDbEntity
8
0
100
AcDbLine
10
-63.816674475905032
20
24.62221899296047
30
0
11
-61.148781257091606
21
27.290112211773916
31
0
0
ARC
5
168
100
AcDbEntity
8
0
100
AcDbCircle
10
-60.706839518849989
20
26.848170473532328
30
0
40
0.625000000000002
210
0
220
0
230
1
100
AcDbArc
50
-44.999999999999751
51
135.00000000000185
0
LINE
5
169
100
AcDbEntity
8
0
100
AcDbLine
10
-60.264897780608393
20
26.406228735290735
30
0
11
-62.932790999421861
21
23.738335516477285
31
0
0
LINE
5
170
100
AcDbEntity
8
0
100
AcDbLine
10
-62.932790999421861
20
23.738335516477285
30
0
11
-60.264897787193831
21
21.070442304249291
31
0
0
ARC
5
171
100
AcDbEntity
8
0
100
AcDbCircle
10
-60.706839518849982
20
20.628500559422246
30
0
40
0.62500000000000822
210
0
220
0
230
1
100
AcDbArc
50
-134.99999999999977
51
45.000000853773876
0
LINE
5
172
100
AcDbEntity
8
0
100
AcDbLine
10
-61.148781257091578
20
20.186558821180647
30
0
11
-63.816674475905046
21
22.854452039994104
31
0
0
LINE
5
173
100
AcDbEntity
8
0
100
AcDbLine
10
-63.816674475905046
20
22.854452039994104
30
0
11
-66.484567694718493
21
20.18655882118065
31
0
0
ARC
5
174
100
AcDbEntity
8
0
100
AcDbCircle
10
-66.926509432960088
20
20.628500559422246
30
0
40
0.625000000000005
210
0
220
0
230
1
100
AcDbArc
50
135
51
315
0
CIRCLE
5
175
100
AcDbEntity
8
0
100
AcDbCircle
10
-69.584561078751165
20
9.9947930534273528
30
0
40
1.25
210
-0
220
0
230
1
0
CIRCLE
5
176
100
AcDbEntity
8
0
100
AcDbCircle
10
-49.58456107875115
20
9.9947930534273564
30
0
40
1.25
210
-0
220
0
230
1
0
CIRCLE
5
177
100
AcDbEntity
8
0
100
AcDbCircle
10
-69.584561078751165
20
29.994793053427415
30
0
40
1.2500000000000089
210
-0
220
0
230
1
0
CIRCLE
5
178
100
AcDbEntity
8
0
100
AcDbCircle
10
-49.584561078751165
20
29.994793053427419
30
0
40
1.2500000000000044
210
-0
220
0
230
1
0
CIRCLE
5
179
100
AcDbEntity
8
0
100
AcDbCircle
10
-36.346314344144616
20
25.632196953956665
30
0
40
1.4999999999999991
210
0
220
0
230
1
0
CIRCLE
5
180
100
AcDbEntity
8
0
100
AcDbCircle
10
-37.037096130858799
20
37.708004137853159
30
0
40
1.4999999999999991
210
0
220
0
230
1
0
CIRCLE
5
181
100
AcDbEntity
8
0
100
AcDbCircle
10
-37.037096130858799
20
2.2919964581932857
30
0
40
1.4999999999999991
210
0
220
0
230
1
0
CIRCLE
5
182
100
AcDbEntity
8
0
100
AcDbCircle
10
-36.346314344144616
20
14.367803642089783
30
0
40
1.4999999999999991
210
0
220
0
230
1
0
LWPOLYLINE
5
183
100
AcDbEntity
8
0
100
AcDbPolyline
90
12
70
1
43
0.0
10
38.507253853548818
20
30.149646886189654
42
-0.33604927311565497
10
38.747936605053312
20
29.967312596628275
42
0.85956645979544899
10
40.21966024461733
20
30.149744150842356
10
40.219546644652894
20
32.149744147616126
42
0.88106244568868297
10
38.743343371526294
20
32.337170949595475
42
-0.34201099887421099
10
38.501289813812967
20
32.149646550658538
10
35.437809322113125
20
32.149472545020807
42
-0.34201752090581028
10
35.195733003435386
20
32.336975099077009
42
0.88108620762563183
10
33.719546655138167
20
32.149374947731729
10
33.719660255102596
20
30.149374950957966
42
0.88101768606923569
10
35.195855280131894
20
29.96195879850681
42
-0.34199871311963687
10
35.43790608888272
20
30.14947254729092
0
LWPOLYLINE
5
184
100
AcDbEntity
8
0
100
AcDbPolyline
90
12
70
1
43
0.0
10
38.744052400296553
20
10.337776785495109
42
-0.34199871311964364
10
38.501990941158589
20
10.150276785495112
10
35.438482614262298
20
10.150276785495109
42
-0.34199871311964364
10
35.196421155124334
20
10.337776785495109
42
0.8810176860692428
10
33.72023677771044
20
10.150276785495112
10
33.72023677771044
20
8.1502767854951124
42
0.88101768606924136
10
35.196421155124334
20
7.9627767854951115
42
-0.34199871311963509
10
35.438482614262298
20
8.1502767854951124
10
38.501990941158589
20
8.1502767854951124
42
-0.34199871311963509
10
38.744052400296553
20
7.9627767854951115
42
0.88101768606924136
10
40.220236777710447
20
8.1502767854951124
10
40.220236777710447
20
10.150276785495112
42
0.8810176860692428
0
CIRCLE
5
185
100
AcDbEntity
8
0
100
AcDbCircle
10
27.037096130858803
20
37.708004137853159
30
0
40
1.4999999999999991
210
0
220
0
230
1
0
CIRCLE
5
186
100
AcDbEntity
8
0
100
AcDbCircle
10
26.34631434414462
20
25.632196953956665
30
0
40
1.4999999999999991
210
0
220
0
230
1
0
CIRCLE
5
187
100
AcDbEntity
8
0
100
AcDbCircle
10
27.037096130858803
20
2.2919964581932857
30
0
40
1.4999999999999991
210
0
220
0
230
1
0
CIRCLE
5
188
100
AcDbEntity
8
0
100
AcDbCircle
10
26.34631434414462
20
14.367803642089783
30
0
40
1.4999999999999991
210
0
220
0
230
1
0
ENDSEC
0
SECTION
2
OBJECTS
0
DICTIONARY
5
C
100
AcDbDictionary
3
ACAD_GROUP
350
D
3
ACAD_MLINESTYLE
350
17
0
DICTIONARY
5
D
100
AcDbDictionary
0
DICTIONARY
5
1A
330
C
100
AcDbDictionary
0
DICTIONARY
5
17
100
AcDbDictionary
0
ENDSEC
0
EOF
